<svg width="1180" height="610" viewBox="0 0 1180 610" xmlns="http://www.w3.org/2000/svg" role="img" aria-label="Durgesh Kushwaha, Data Analytics / Data Science, focused on AI/ML, Frontend and Prompt Engineering" xmlns:c2pa="http://c2pa.org/manifest"><metadata><c2pa:manifest>AAAWgmp1bWIAAAAeanVtZGMycGEAEQAQgAAAqgA4m3EDYzJwYQAAABZcanVtYgAAAEdqdW1kYzJtYQARABCAAACqADibcQN1cm46YzJwYTplMWM2M2NlZC1iNDZmLTRlNjctOGQ5MS05NWJlY2M0NTg3MGUAAAADl2p1bWIAAAApanVtZGMyYXMAEQAQgAAAqgA4m3EDYzJwYS5hc3NlcnRpb25zAAAAALxqdW1iAAAARGp1bWRjYm9yABEAEIAAAKoAOJtxE2MycGEuaW5ncmVkaWVudC52MwAAAAAYYzJzaK19GEs7OHPtHCDdvBk+wIQAAABwY2JvcqNpZGM6Zm9ybWF0bWltYWdlL3N2Zyt4bWxqaW5zdGFuY2VJRHgseG1wOmlpZDo4Zjg0YzM0Ni1mYmI3LTQ1ZTctOTY4MS03MjM4YTNhMTg0N2JscmVsYXRpb25zaGlwaHBhcmVudE9mAAAB4mp1bWIAAABBanVtZGNib3IAEQAQgAAAqgA4m3ETYzJwYS5hY3Rpb25zLnYyAAAAABhjMnNokjAEOM8T/w8OtXnKqRwyTAAAAZljYm9yomdhY3Rpb25zgqJmYWN0aW9ua2MycGEub3BlbmVkanBhcmFtZXRlcnOha2luZ3JlZGllbnRzgaJjdXJseC1zZWxmI2p1bWJmPWMycGEuYXNzZXJ0aW9ucy9jMnBhLmluZ3JlZGllbnQudjNkaGFzaFggf991lSSB4CcWyCnWJfYDUJBRbZZCBvrFltLbSi/tYeakZmFjdGlvbngdY29tLmFudGhyb3BpYy5jbGF1ZGUucHJvdmlkZWRqcGFyYW1ldGVyc6F4H2NvbS5hbnRocm9waWMub3JpZ2luLWNvbmZpZGVuY2VndW5rbm93bmtkZXNjcmlwdGlvbnhmQ2xhdWRlIHByb3ZpZGVkIHRoaXMgZmlsZSBhdCB0aGUgcmVxdWVzdCBvZiBhIHVzZXIgYW5kIG1heSBoYXZlIGNyZWF0ZWQgb3IgbW9kaWZpZWQgdGhlIGZpbGUgY29udGVudHMubXNvZnR3YXJlQWdlbnShZG5hbWVmQ2xhdWRlcmFsbEFjdGlvbnNJbmNsdWRlZPUAAADIanVtYgAAAEBqdW1kY2JvcgARABCAAACqADibcRNjMnBhLmhhc2guZGF0YQAAAAAYYzJzaCNE1riOfOtXFJ0uicQYrDwAAACAY2JvcqVjYWxnZnNoYTI1NmNwYWRMAAAAAAAAAAAAAAAAZGhhc2hYIH+6iW0ZPXuK476uplRMSEWEU2ZXbPjBkdaF6b0vq9nMZG5hbWVuanVtYmYgbWFuaWZlc3RqZXhjbHVzaW9uc4GiZXN0YXJ0GQEAZmxlbmd0aBkeBAAAAj5qdW1iAAAAJ2p1bWRjMmNsABEAEIAAAKoAOJtxA2MycGEuY2xhaW0udjIAAAACD2Nib3KlY2FsZ2ZzaGEyNTZpc2lnbmF0dXJleE1zZWxmI2p1bWJmPS9jMnBhL3VybjpjMnBhOmUxYzYzY2VkLWI0NmYtNGU2Ny04ZDkxLTk1YmVjYzQ1ODcwZS9jMnBhLnNpZ25hdHVyZWppbnN0YW5jZUlEeCx4bXA6aWlkOmMxOWE5NWQwLTMzZDctNGU1ZS1hZTQ4LTYxMmM4NjFmMWQ3N3JjcmVhdGVkX2Fzc2VydGlvbnODomN1cmx4LXNlbGYjanVtYmY9YzJwYS5hc3NlcnRpb25zL2MycGEuaW5ncmVkaWVudC52M2RoYXNoWCB/33WVJIHgJxbIKdYl9gNQkFFtlkIG+sWW0ttKL+1h5qJjdXJseCpzZWxmI2p1bWJmPWMycGEuYXNzZXJ0aW9ucy9jMnBhLmFjdGlvbnMudjJkaGFzaFggaBTmxuNqqEPOUbviaELne8/lr9PsMdTu1d8QzYbUOvqiY3VybHgpc2VsZiNqdW1iZj1jMnBhLmFzc2VydGlvbnMvYzJwYS5oYXNoLmRhdGFkaGFzaFggZnAU3j0JIPBpdWaaFm2xzvrf2mid57Ymc6cMIkrqMtt0Y2xhaW1fZ2VuZXJhdG9yX2luZm+jZG5hbWVvQW50aHJvcGljIEZpbGVzZ3ZlcnNpb25lMS4wLjBrc3BlY1ZlcnNpb25lMi40LjAAABA4anVtYgAAAChqdW1kYzJjcwARABCAAACqADibcQNjMnBhLnNpZ25hdHVyZQAAABAIY2JvctKEWQISogEmGCFZAgowggIGMIIBjaADAgECAhRA5aAK7sI50L64g/oGQgU9Z1UTADAKBggqhkjOPQQDAzBJMRcwFQYDVQQKEw5BbnRocm9waWMsIFBCQzEuMCwGA1UEAxMlQW50aHJvcGljIENvbnRlbnQgQ3JlZGVudGlhbHMgUm9vdCBDQTAeFw0yNjA4MDcxODQzNTZaFw0yODA4MDYxOTQzNTZaMEQxFzAVBgNVBAoTDkFudGhyb3BpYywgUEJDMSkwJwYDVQQDEyBBbnRocm9waWMgQ2xhdWRlIENvbnRlbnQgU2lnbmluZzBZMBMGByqGSM49AgEGCCqGSM49AwEHA0IABJh6CmvLUBgFFNU0vUKlOVtE6djd17L5SuwX0LemFisBM3dkd/3cyjxFA3Qo5S46fX0/ihY0VZ7mfb9KF703t5OjWDBWMA4GA1UdDwEB/wQEAwIHgDAVBgNVHSUEDjAMBgorBgEEAYPoXgIBMAwGA1UdEwEB/wQCMAAwHwYDVR0jBBgwFoAUzlHiBIFOZFsj+OPEz5o+nMHXXMIwCgYIKoZIzj0EAwMDZwAwZAIwMXMdFJ4BetLLVY7ORuE9noqbbAZOZn/aArXyTwFAZfKrPzxF2vPoJNf1+UCdg1XGAjBwX1zd9WGqYkqmL5SFqw1QySjr1zJfpJM9+1rdDwSPLMOPOjKuiXjoU/pUUeG9RwmhY3BhZFkNngAAAAAAAAAAAAAAAAAAAAAAAAAAAAAAAAAAAAAAAAAAAAAAAAAAAAAAAAAAAAAAAAAAAAAAAAAAAAAAAAAAAAAAAAAAAAAAAAAAAAAAAAAAAAAAAAAAAAAAAAAAAAAAAAAAAAAAAAAAAAAAAAAAAAAAAAAAAAAAAAAAAAAAAAAAAAAAAAAAAAAAAAAAAAAAAAAAAAAAAAAAAAAAAAAAAAAAAAAAAAAAAAAAAAAAAAAAAAAAAAAAAAAAAAAAAAAAAAAAAAAAAAAAAAAAAAAAAAAAAAAAAAAAAAAAAAAAAAAAAAAAAAAAAAAAAAAAAAAAAAAAAAAAAAAAAAAAAAAAAAAAAAAAAAAAAAAAAAAAAAAAAAAAAAAAAAAAAAAAAAAAAAAAAAAAAAAAAAAAAAAAAAAAAAAAAAAAAAAAAAAAAAAAAAAAAAAAAAAAAAAAAAAAAAAAAAAAAAAAAAAAAAAAAAAAAAAAAAAAAAAAAAAAAAAAAAAAAAAAAAAAAAAAAAAAAAAAAAAAAAAAAAAAAAAAAAAAAAAAAAAAAAAAAAAAAAAAAAAAAAAAAAAAAAAAAAAAAAAAAAAAAAAAAAAAAAAAAAAAAAAAAAAAAAAAAAAAAAAAAAAAAAAAAAAAAAAAAAAAAAAAAAAAAAAAAAAAAAAAAAAAAAAAAAAAAAAAAAAAAAAAAAAAAAAAAAAAAAAAAAAAAAAAAAAAAAAAAAAAAAAAAAAAAAAAAAAAAAAAAAAAAAAAAAAAAAAAAAAAAAAAAAAAAAAAAAAAAAAAAAAAAAAAAAAAAAAAAAAAAAAAAAAAAAAAAAAAAAAAAAAAAAAAAAAAAAAAAAAAAAAAAAAAAAAAAAAAAAAAAAAAAAAAAAAAAAAAAAAAAAAAAAAAAAAAAAAAAAAAAAAAAAAAAAAAAAAAAAAAAAAAAAAAAAAAAAAAAAAAAAAAAAAAAAAAAAAAAAAAAAAAAAAAAAAAAAAAAAAAAAAAAAAAAAAAAAAAAAAAAAAAAAAAAAAAAAAAAAAAAAAAAAAAAAAAAAAAAAAAAAAAAAAAAAAAAAAAAAAAAAAAAAAAAAAAAAAAAAAAAAAAAAAAAAAAAAAAAAAAAAAAAAAAAAAAAAAAAAAAAAAAAAAAAAAAAAAAAAAAAAAAAAAAAAAAAAAAAAAAAAAAAAAAAAAAAAAAAAAAAAAAAAAAAAAAAAAAAAAAAAAAAAAAAAAAAAAAAAAAAAAAAAAAAAAAAAAAAAAAAAAAAAAAAAAAAAAAAAAAAAAAAAAAAAAAAAAAAAAAAAAAAAAAAAAAAAAAAAAAAAAAAAAAAAAAAAAAAAAAAAAAAAAAAAAAAAAAAAAAAAAAAAAAAAAAAAAAAAAAAAAAAAAAAAAAAAAAAAAAAAAAAAAAAAAAAAAAAAAAAAAAAAAAAAAAAAAAAAAAAAAAAAAAAAAAAAAAAAAAAAAAAAAAAAAAAAAAAAAAAAAAAAAAAAAAAAAAAAAAAAAAAAAAAAAAAAAAAAAAAAAAAAAAAAAAAAAAAAAAAAAAAAAAAAAAAAAAAAAAAAAAAAAAAAAAAAAAAAAAAAAAAAAAAAAAAAAAAAAAAAAAAAAAAAAAAAAAAAAAAAAAAAAAAAAAAAAAAAAAAAAAAAAAAAAAAAAAAAAAAAAAAAAAAAAAAAAAAAAAAAAAAAAAAAAAAAAAAAAAAAAAAAAAAAAAAAAAAAAAAAAAAAAAAAAAAAAAAAAAAAAAAAAAAAAAAAAAAAAAAAAAAAAAAAAAAAAAAAAAAAAAAAAAAAAAAAAAAAAAAAAAAAAAAAAAAAAAAAAAAAAAAAAAAAAAAAAAAAAAAAAAAAAAAAAAAAAAAAAAAAAAAAAAAAAAAAAAAAAAAAAAAAAAAAAAAAAAAAAAAAAAAAAAAAAAAAAAAAAAAAAAAAAAAAAAAAAAAAAAAAAAAAAAAAAAAAAAAAAAAAAAAAAAAAAAAAAAAAAAAAAAAAAAAAAAAAAAAAAAAAAAAAAAAAAAAAAAAAAAAAAAAAAAAAAAAAAAAAAAAAAAAAAAAAAAAAAAAAAAAAAAAAAAAAAAAAAAAAAAAAAAAAAAAAAAAAAAAAAAAAAAAAAAAAAAAAAAAAAAAAAAAAAAAAAAAAAAAAAAAAAAAAAAAAAAAAAAAAAAAAAAAAAAAAAAAAAAAAAAAAAAAAAAAAAAAAAAAAAAAAAAAAAAAAAAAAAAAAAAAAAAAAAAAAAAAAAAAAAAAAAAAAAAAAAAAAAAAAAAAAAAAAAAAAAAAAAAAAAAAAAAAAAAAAAAAAAAAAAAAAAAAAAAAAAAAAAAAAAAAAAAAAAAAAAAAAAAAAAAAAAAAAAAAAAAAAAAAAAAAAAAAAAAAAAAAAAAAAAAAAAAAAAAAAAAAAAAAAAAAAAAAAAAAAAAAAAAAAAAAAAAAAAAAAAAAAAAAAAAAAAAAAAAAAAAAAAAAAAAAAAAAAAAAAAAAAAAAAAAAAAAAAAAAAAAAAAAAAAAAAAAAAAAAAAAAAAAAAAAAAAAAAAAAAAAAAAAAAAAAAAAAAAAAAAAAAAAAAAAAAAAAAAAAAAAAAAAAAAAAAAAAAAAAAAAAAAAAAAAAAAAAAAAAAAAAAAAAAAAAAAAAAAAAAAAAAAAAAAAAAAAAAAAAAAAAAAAAAAAAAAAAAAAAAAAAAAAAAAAAAAAAAAAAAAAAAAAAAAAAAAAAAAAAAAAAAAAAAAAAAAAAAAAAAAAAAAAAAAAAAAAAAAAAAAAAAAAAAAAAAAAAAAAAAAAAAAAAAAAAAAAAAAAAAAAAAAAAAAAAAAAAAAAAAAAAAAAAAAAAAAAAAAAAAAAAAAAAAAAAAAAAAAAAAAAAAAAAAAAAAAAAAAAAAAAAAAAAAAAAAAAAAAAAAAAAAAAAAAAAAAAAAAAAAAAAAAAAAAAAAAAAAAAAAAAAAAAAAAAAAAAAAAAAAAAAAAAAAAAAAAAAAAAAAAAAAAAAAAAAAAAAAAAAAAAAAAAAAAAAAAAAAAAAAAAAAAAAAAAAAAAAAAAAAAAAAAAAAAAAAAAAAAAAAAAAAAAAAAAAAAAAAAAAAAAAAAAAAAAAAAAAAAAAAAAAAAAAAAAAAAAAAAAAAAAAAAAAAAAAAAAAAAAAAAAAAAAAAAAAAAAAAAAAAAAAAAAAAAAAAAAAAAAAAAAAAAAAAAAAAAAAAAAAAAAAAAAAAAAAAAAAAAAAAAAAAAAAAAAAAAAAAAAAAAAAAAAAAAAAAAAAAAAAAAAAAAAAAAAAAAAAAAAAAAAAAAAAAAAAAAAAAAAAAAAAAAAAAAAAAAAAAAAAAAAAAAAAAAAAAAAAAAAAAAAAAAAAAAAAAAAAAAAAAAAAAAAAAAAAAAAAAAAAAAAAAAAAAAAAAAAAAAAAAAAAAAAAAAAAAAAAAAAAAAAAAAAAAAAAAAAAAAAAAAAAAAAAAAAAAAAAAAAAAAAAAAAAAAAAAAAAAAAAAAAAAAAAAAAAAAAAAAAAAAAAAAAAAAAAAAAAAAAAAAAAAAAAAAAAAAAAAAAAAAAAAAAAAAAAAAAAAAAAAAAAAAAAAAAAAAAAAAAAAAAAAAAAAAAAAAAAAAAAAAAAAAAAAAAAAAAAAAAAAAAAAAAAAAAAAAAAAAAAAAAAAAAAAAAAAAAAAAAAAAAAAAAAAAAAAAAAAAAAAAAAAAAAAAAAAAAAAAAAAAAAAAAAAAAAAAAAAAAAAAAAAAAAAAAAAAAAAAAAAAAAAAAAAAAAAAAAAAAAAAAAAAAAAAAAAAAAAAAAAAAAAAAAAAAAAAAAAAAAAAAAAAAAAAAAAAAAAAAAAAAAAAAAAAAAAAAAAAAAAAAAAAAAAAAAAAAAAAAAAAAAAAAAAAAAAAAAAAAAAAAAAAAAAAAAAAAAAAAAAAAAAAAAAAAAAAAAAAAAAAAAAAAAAAAAAAAAAAAAAAAAAAAAAAAAAAAAAAAAAAAAAAAAAAAAAAAAAAAAAAAAAAAAAAAAAAAAAAAAAAAAAAAAAAAAAAAAAAAAAAAAAAAAAAAAAAAAAAAAAAAAAAAAAAAAAAAAAAAAAAAAAAAAAAAAAAAAAAAAAAAAAAAAAAAAAAAAAAAAAAAAAAAAAAAAAAAAAAAAAAAAAAAAAAAAAAAAAAAAAAAAAAAAAAAAAAAAAAAAAAAAAAAAAAAAAAAAAAAAAAAAAAAAAAAAAAAAAAAAAAAAAAAAAAAAAAAAAAAAAAAAAAAAAAAAAAAAAAAAAAAAAAAAAAAAAAAAAAAAAAAAAAAAAAAAAAAAAAAAAAAAAAAAAAAAAAAAAAAAAAAAAAAAAAAAAAAAAAAAAAAAAAAAAAAAAAAAAAAAAAAAAAAAAAAAAAAAAAAAAAAAAAAAAAAAAAAAAAAAAAAAAAAAAAAAAAAAAAAAAAAAAAAAAAAAAAAAAAAAAAAAAAAAAAAAAAAAAAAAAAAAAAAAAAAAAAAAAAAAAAAAAAAAAAAAAAAAAAAAAAAAAAAAAAAAAAAAAAAAAAAAAAAAAAAAAAAAAAAAAAAAAAAAAAAAAAAAAAAAAAAAAAAAAAAAAAAAAAAAAAAAAAAAAAAAAAAAAAAAAAAAAAAAAAAAAAAAAAAAAAAAAAAAAAAAAAAAAAAAAAAAAAAAAAAAAAAAAAAAAAAAAAAAAAAAAAAAAAAAAAAAAAAAAAAAAAAAAAAAPZYQB90gQpUabvvLN4rXemU26LwjjYC0CejX9afL6jYlC35/vMrTv9uPZNbyAwlKhajScTpVusz3dcyLlESmQdz5CI=</c2pa:manifest></metadata>
  <defs>
    <linearGradient id="bgGrad-light" x1="0%" y1="0%" x2="100%" y2="100%">
      <stop offset="0%" stop-color="#FFFFFF"/>
      <stop offset="55%" stop-color="#F8FAFC"/>
      <stop offset="100%" stop-color="#EEF6FF"/>
    </linearGradient>
    <linearGradient id="accentGrad-light" x1="0%" y1="0%" x2="100%" y2="0%">
      <stop offset="0%" stop-color="#2563EB"/>
      <stop offset="50%" stop-color="#06B6D4"/>
      <stop offset="100%" stop-color="#10B981">
        <animate attributeName="offset" values="1;0.6;1" dur="6s" repeatCount="indefinite"/>
      </stop>
    </linearGradient>
    <radialGradient id="glow-light" cx="50%" cy="0%" r="80%">
      <stop offset="0%" stop-color="#2563EB" stop-opacity="0.22"/>
      <stop offset="100%" stop-color="#2563EB" stop-opacity="0"/>
    </radialGradient>
    <pattern id="grid-light" width="28" height="28" patternUnits="userSpaceOnUse">
      <path d="M28 0H0V28" fill="none" stroke="#475569" stroke-opacity="0.04" stroke-width="1"/>
    </pattern>
    <clipPath id="frameClip-light"><rect x="0" y="0" width="1180" height="610" rx="22"/></clipPath>
  </defs>

  <g clip-path="url(#frameClip-light)">
    <rect width="1180" height="610" fill="url(#bgGrad-light)"/>
    <rect width="1180" height="610" fill="url(#grid-light)"/>
    <rect width="1180" height="260" fill="url(#glow-light)"/>

    <!-- drifting particles -->
    <circle cx="140" cy="120" r="1.6" fill="#06B6D4" opacity="0.5">
      <animate attributeName="cy" values="120;90;120" dur="9s" repeatCount="indefinite"/>
    </circle>
    <circle cx="1020" cy="480" r="1.8" fill="#2563EB" opacity="0.4">
      <animate attributeName="cy" values="480;440;480" dur="11s" repeatCount="indefinite"/>
    </circle>
    <circle cx="900" cy="110" r="1.4" fill="#10B981" opacity="0.45">
      <animate attributeName="cx" values="900;930;900" dur="8s" repeatCount="indefinite"/>
    </circle>

    <!-- outer border shimmer -->
    <rect x="1" y="1" width="1178" height="608" rx="21" fill="none" stroke="url(#accentGrad-light)" stroke-width="1.4" stroke-opacity="0.65"/>

    <!-- terminal header -->
    <rect x="0" y="0" width="1180" height="42" fill="#FFFFFF" fill-opacity="0.55"/>
    <line x1="0" y1="42" x2="1180" y2="42" stroke="#DCE7F5" stroke-width="1"/>
    <circle cx="26" cy="21" r="6" fill="#FB7185"/>
    <circle cx="46" cy="21" r="6" fill="#FBBF24"/>
    <circle cx="66" cy="21" r="6" fill="#34D399"/>
    <text x="92" y="26" font-family="ui-monospace,SFMono-Regular,Menlo,Monaco,Consolas,monospace" font-size="13" fill="#475569">durgesh@profile:~</text>
    <g>
      <circle cx="1050" cy="21" r="4" fill="#10B981">
        <animate attributeName="opacity" values="1;0.35;1" dur="1.8s" repeatCount="indefinite"/>
      </circle>
      <text x="1062" y="26" font-family="ui-monospace,SFMono-Regular,Menlo,Monaco,Consolas,monospace" font-size="12" letter-spacing="1.5" fill="#10B981">ONLINE</text>
    </g>

    <!-- LEFT panel -->
    <rect x="24" y="64" width="420" height="522" rx="16" fill="#FFFFFF" fill-opacity="0.55" stroke="#DCE7F5" stroke-width="1"/>
    <text x="46" y="94" font-family="ui-monospace,SFMono-Regular,Menlo,Monaco,Consolas,monospace" font-size="12" letter-spacing="2" fill="#2563EB">[ PROFILE / ENGINEERING ]</text>

    <!-- Durgesh animated data/AI identity visual -->
    <g>
      <text x="112" y="150" font-family="ui-monospace,SFMono-Regular,Menlo,Monaco,Consolas,monospace" font-size="11" letter-spacing="2" fill="#0E7490">DATA / AI CORE</text>
      <g><circle cx="220" cy="178" r="2" fill="#0E7490" opacity="0.78"/><circle cx="232" cy="178" r="2" fill="#0E7490" opacity="0.44"/><circle cx="244" cy="178" r="2" fill="#0E7490" opacity="0.86"/><circle cx="256" cy="178" r="2" fill="#0E7490" opacity="0.41"/><circle cx="184" cy="190" r="2" fill="#0E7490" opacity="0.77"/><circle cx="196" cy="190" r="2" fill="#0E7490" opacity="0.45"/><circle cx="208" cy="190" r="2" fill="#0E7490" opacity="0.86"/><circle cx="220" cy="190" r="2" fill="#0E7490" opacity="0.39"/><circle cx="232" cy="190" r="2" fill="#0E7490" opacity="0.80"/><circle cx="244" cy="190" r="2" fill="#0E7490" opacity="0.65"/><circle cx="256" cy="190" r="2" fill="#0E7490" opacity="0.62"/><circle cx="268" cy="190" r="2" fill="#0E7490" opacity="0.82"/><circle cx="280" cy="190" r="2" fill="#0E7490" opacity="0.35"/><circle cx="172" cy="202" r="2" fill="#0E7490" opacity="0.86"/><circle cx="184" cy="202" r="2" fill="#0E7490" opacity="0.38"/><circle cx="196" cy="202" r="2" fill="#0E7490" opacity="0.81"/><circle cx="208" cy="202" r="2" fill="#0E7490" opacity="0.64"/><circle cx="220" cy="202" r="2" fill="#0E7490" opacity="0.63"/><circle cx="232" cy="202" r="2" fill="#0E7490" opacity="0.82"/><circle cx="244" cy="202" r="2" fill="#0E7490" opacity="0.36"/><circle cx="256" cy="202" r="2" fill="#0E7490" opacity="0.86"/><circle cx="268" cy="202" r="2" fill="#0E7490" opacity="0.49"/><circle cx="280" cy="202" r="2" fill="#0E7490" opacity="0.75"/><circle cx="292" cy="202" r="2" fill="#0E7490" opacity="0.72"/><circle cx="160" cy="214" r="2" fill="#0E7490" opacity="0.81"/><circle cx="172" cy="214" r="2" fill="#0E7490" opacity="0.63"/><circle cx="184" cy="214" r="2" fill="#0E7490" opacity="0.64"/><circle cx="196" cy="214" r="2" fill="#0E7490" opacity="0.81"/><circle cx="208" cy="214" r="2" fill="#0E7490" opacity="0.37"/><circle cx="220" cy="214" r="2" fill="#0E7490" opacity="0.86"/><circle cx="232" cy="214" r="2" fill="#0E7490" opacity="0.47"/><circle cx="244" cy="214" r="2" fill="#0E7490" opacity="0.76"/><circle cx="256" cy="214" r="2" fill="#0E7490" opacity="0.71"/><circle cx="268" cy="214" r="2" fill="#0E7490" opacity="0.55"/><circle cx="280" cy="214" r="2" fill="#0E7490" opacity="0.85"/><circle cx="292" cy="214" r="2" fill="#0E7490" opacity="0.29"/><circle cx="304" cy="214" r="2" fill="#0E7490" opacity="0.84"/><circle cx="148" cy="226" r="2" fill="#0E7490" opacity="0.65"/><circle cx="160" cy="226" r="2" fill="#0E7490" opacity="0.81"/><circle cx="172" cy="226" r="2" fill="#0E7490" opacity="0.39"/><circle cx="184" cy="226" r="2" fill="#0E7490" opacity="0.86"/><circle cx="196" cy="226" r="2" fill="#0E7490" opacity="0.46"/><circle cx="208" cy="226" r="2" fill="#0E7490" opacity="0.77"/><circle cx="220" cy="226" r="2" fill="#0E7490" opacity="0.70"/><circle cx="232" cy="226" r="2" fill="#0E7490" opacity="0.56"/><circle cx="244" cy="226" r="2" fill="#0E7490" opacity="0.84"/><circle cx="256" cy="226" r="2" fill="#0E7490" opacity="0.28"/><circle cx="268" cy="226" r="2" fill="#0E7490" opacity="0.84"/><circle cx="280" cy="226" r="2" fill="#0E7490" opacity="0.56"/><circle cx="292" cy="226" r="2" fill="#0E7490" opacity="0.70"/><circle cx="304" cy="226" r="2" fill="#0E7490" opacity="0.77"/><circle cx="316" cy="226" r="2" fill="#0E7490" opacity="0.46"/><circle cx="148" cy="238" r="2" fill="#0E7490" opacity="0.86"/><circle cx="160" cy="238" r="2" fill="#0E7490" opacity="0.45"/><circle cx="172" cy="238" r="2" fill="#0E7490" opacity="0.77"/><circle cx="184" cy="238" r="2" fill="#0E7490" opacity="0.70"/><circle cx="196" cy="238" r="2" fill="#0E7490" opacity="0.57"/><circle cx="208" cy="238" r="2" fill="#0E7490" opacity="0.84"/><circle cx="220" cy="238" r="2" fill="#0E7490" opacity="0.29"/><circle cx="232" cy="238" r="2" fill="#0E7490" opacity="0.84"/><circle cx="244" cy="238" r="2" fill="#0E7490" opacity="0.55"/><circle cx="256" cy="238" r="2" fill="#0E7490" opacity="0.71"/><circle cx="268" cy="238" r="2" fill="#0E7490" opacity="0.76"/><circle cx="280" cy="238" r="2" fill="#0E7490" opacity="0.47"/><circle cx="292" cy="238" r="2" fill="#0E7490" opacity="0.86"/><circle cx="304" cy="238" r="2" fill="#0E7490" opacity="0.38"/><circle cx="316" cy="238" r="2" fill="#0E7490" opacity="0.81"/><circle cx="136" cy="250" r="2" fill="#0E7490" opacity="0.78"/><circle cx="148" cy="250" r="2" fill="#0E7490" opacity="0.69"/><circle cx="160" cy="250" r="2" fill="#0E7490" opacity="0.58"/><circle cx="172" cy="250" r="2" fill="#0E7490" opacity="0.84"/><circle cx="184" cy="250" r="2" fill="#0E7490" opacity="0.30"/><circle cx="196" cy="250" r="2" fill="#0E7490" opacity="0.85"/><circle cx="208" cy="250" r="2" fill="#0E7490" opacity="0.54"/><circle cx="220" cy="250" r="2" fill="#0E7490" opacity="0.72"/><circle cx="232" cy="250" r="2" fill="#0E7490" opacity="0.76"/><circle cx="244" cy="250" r="2" fill="#0E7490" opacity="0.48"/><circle cx="256" cy="250" r="2" fill="#0E7490" opacity="0.86"/><circle cx="268" cy="250" r="2" fill="#0E7490" opacity="0.36"/><circle cx="280" cy="250" r="2" fill="#0E7490" opacity="0.82"/><circle cx="292" cy="250" r="2" fill="#0E7490" opacity="0.63"/><circle cx="304" cy="250" r="2" fill="#0E7490" opacity="0.64"/><circle cx="316" cy="250" r="2" fill="#0E7490" opacity="0.81"/><circle cx="328" cy="250" r="2" fill="#0E7490" opacity="0.38"/><circle cx="136" cy="262" r="2" fill="#0E7490" opacity="0.83"/><circle cx="148" cy="262" r="2" fill="#0E7490" opacity="0.32"/><circle cx="160" cy="262" r="2" fill="#0E7490" opacity="0.85"/><circle cx="172" cy="262" r="2" fill="#0E7490" opacity="0.53"/><circle cx="184" cy="262" r="2" fill="#0E7490" opacity="0.73"/><circle cx="196" cy="262" r="2" fill="#0E7490" opacity="0.75"/><circle cx="208" cy="262" r="2" fill="#0E7490" opacity="0.49"/><circle cx="220" cy="262" r="2" fill="#0E7490" opacity="0.86"/><circle cx="232" cy="262" r="2" fill="#0E7490" opacity="0.35"/><circle cx="244" cy="262" r="2" fill="#0E7490" opacity="0.82"/><circle cx="256" cy="262" r="2" fill="#0E7490" opacity="0.62"/><circle cx="268" cy="262" r="2" fill="#0E7490" opacity="0.65"/><circle cx="280" cy="262" r="2" fill="#0E7490" opacity="0.80"/><circle cx="292" cy="262" r="2" fill="#0E7490" opacity="0.39"/><circle cx="304" cy="262" r="2" fill="#0E7490" opacity="0.86"/><circle cx="316" cy="262" r="2" fill="#0E7490" opacity="0.46"/><circle cx="328" cy="262" r="2" fill="#0E7490" opacity="0.77"/><circle cx="136" cy="274" r="2" fill="#0E7490" opacity="0.52"/><circle cx="148" cy="274" r="2" fill="#0E7490" opacity="0.74"/><circle cx="160" cy="274" r="2" fill="#0E7490" opacity="0.74"/><circle cx="172" cy="274" r="2" fill="#0E7490" opacity="0.51"/><circle cx="184" cy="274" r="2" fill="#0E7490" opacity="0.85"/><circle cx="196" cy="274" r="2" fill="#0E7490" opacity="0.34"/><circle cx="208" cy="274" r="2" fill="#0E7490" opacity="0.82"/><circle cx="220" cy="274" r="2" fill="#0E7490" opacity="0.61"/><circle cx="232" cy="274" r="2" fill="#0E7490" opacity="0.66"/><circle cx="244" cy="274" r="2" fill="#0E7490" opacity="0.80"/><circle cx="256" cy="274" r="2" fill="#0E7490" opacity="0.40"/><circle cx="268" cy="274" r="2" fill="#0E7490" opacity="0.86"/><circle cx="280" cy="274" r="2" fill="#0E7490" opacity="0.44"/><circle cx="292" cy="274" r="2" fill="#0E7490" opacity="0.78"/><circle cx="304" cy="274" r="2" fill="#0E7490" opacity="0.69"/><circle cx="316" cy="274" r="2" fill="#0E7490" opacity="0.57"/><circle cx="328" cy="274" r="2" fill="#0E7490" opacity="0.84"/><circle cx="340" cy="274" r="2" fill="#0E7490" opacity="0.30"/><circle cx="136" cy="286" r="2" fill="#0E7490" opacity="0.52"/><circle cx="148" cy="286" r="2" fill="#0E7490" opacity="0.85"/><circle cx="160" cy="286" r="2" fill="#0E7490" opacity="0.33"/><circle cx="172" cy="286" r="2" fill="#0E7490" opacity="0.83"/><circle cx="184" cy="286" r="2" fill="#0E7490" opacity="0.60"/><circle cx="196" cy="286" r="2" fill="#0E7490" opacity="0.67"/><circle cx="208" cy="286" r="2" fill="#0E7490" opacity="0.79"/><circle cx="220" cy="286" r="2" fill="#0E7490" opacity="0.42"/><circle cx="232" cy="286" r="2" fill="#0E7490" opacity="0.86"/><circle cx="244" cy="286" r="2" fill="#0E7490" opacity="0.43"/><circle cx="256" cy="286" r="2" fill="#0E7490" opacity="0.78"/><circle cx="268" cy="286" r="2" fill="#0E7490" opacity="0.68"/><circle cx="280" cy="286" r="2" fill="#0E7490" opacity="0.59"/><circle cx="292" cy="286" r="2" fill="#0E7490" opacity="0.83"/><circle cx="304" cy="286" r="2" fill="#0E7490" opacity="0.31"/><circle cx="316" cy="286" r="2" fill="#0E7490" opacity="0.85"/><circle cx="328" cy="286" r="2" fill="#0E7490" opacity="0.53"/><circle cx="340" cy="286" r="2" fill="#0E7490" opacity="0.72"/><circle cx="124" cy="298" r="2" fill="#0E7490" opacity="0.31"/><circle cx="136" cy="298" r="2" fill="#0E7490" opacity="0.83"/><circle cx="148" cy="298" r="2" fill="#0E7490" opacity="0.59"/><circle cx="160" cy="298" r="2" fill="#0E7490" opacity="0.68"/><circle cx="172" cy="298" r="2" fill="#0E7490" opacity="0.79"/><circle cx="184" cy="298" r="2" fill="#0E7490" opacity="0.43"/><circle cx="196" cy="298" r="2" fill="#0E7490" opacity="0.86"/><circle cx="208" cy="298" r="2" fill="#0E7490" opacity="0.42"/><circle cx="220" cy="298" r="2" fill="#0E7490" opacity="0.79"/><circle cx="232" cy="298" r="2" fill="#0E7490" opacity="0.67"/><circle cx="244" cy="298" r="2" fill="#0E7490" opacity="0.60"/><circle cx="256" cy="298" r="2" fill="#0E7490" opacity="0.83"/><circle cx="268" cy="298" r="2" fill="#0E7490" opacity="0.32"/><circle cx="280" cy="298" r="2" fill="#0E7490" opacity="0.85"/><circle cx="292" cy="298" r="2" fill="#0E7490" opacity="0.52"/><circle cx="304" cy="298" r="2" fill="#0E7490" opacity="0.73"/><circle cx="316" cy="298" r="2" fill="#0E7490" opacity="0.74"/><circle cx="328" cy="298" r="2" fill="#0E7490" opacity="0.50"/><circle cx="340" cy="298" r="2" fill="#0E7490" opacity="0.85"/><circle cx="124" cy="310" r="2" fill="#0E7490" opacity="0.69"/><circle cx="136" cy="310" r="2" fill="#0E7490" opacity="0.78"/><circle cx="148" cy="310" r="2" fill="#0E7490" opacity="0.44"/><circle cx="160" cy="310" r="2" fill="#0E7490" opacity="0.86"/><circle cx="172" cy="310" r="2" fill="#0E7490" opacity="0.41"/><circle cx="184" cy="310" r="2" fill="#0E7490" opacity="0.80"/><circle cx="196" cy="310" r="2" fill="#0E7490" opacity="0.66"/><circle cx="208" cy="310" r="2" fill="#0E7490" opacity="0.61"/><circle cx="220" cy="310" r="2" fill="#0E7490" opacity="0.83"/><circle cx="232" cy="310" r="2" fill="#0E7490" opacity="0.34"/><circle cx="244" cy="310" r="2" fill="#0E7490" opacity="0.85"/><circle cx="256" cy="310" r="2" fill="#0E7490" opacity="0.51"/><circle cx="268" cy="310" r="2" fill="#0E7490" opacity="0.74"/><circle cx="280" cy="310" r="2" fill="#0E7490" opacity="0.74"/><circle cx="292" cy="310" r="2" fill="#0E7490" opacity="0.51"/><circle cx="304" cy="310" r="2" fill="#0E7490" opacity="0.85"/><circle cx="316" cy="310" r="2" fill="#0E7490" opacity="0.33"/><circle cx="328" cy="310" r="2" fill="#0E7490" opacity="0.83"/><circle cx="340" cy="310" r="2" fill="#0E7490" opacity="0.60"/><circle cx="124" cy="322" r="2" fill="#0E7490" opacity="0.86"/><circle cx="136" cy="322" r="2" fill="#0E7490" opacity="0.39"/><circle cx="148" cy="322" r="2" fill="#0E7490" opacity="0.80"/><circle cx="160" cy="322" r="2" fill="#0E7490" opacity="0.65"/><circle cx="172" cy="322" r="2" fill="#0E7490" opacity="0.62"/><circle cx="184" cy="322" r="2" fill="#0E7490" opacity="0.82"/><circle cx="196" cy="322" r="2" fill="#0E7490" opacity="0.35"/><circle cx="208" cy="322" r="2" fill="#0E7490" opacity="0.85"/><circle cx="220" cy="322" r="2" fill="#0E7490" opacity="0.50"/><circle cx="232" cy="322" r="2" fill="#0E7490" opacity="0.75"/><circle cx="244" cy="322" r="2" fill="#0E7490" opacity="0.73"/><circle cx="256" cy="322" r="2" fill="#0E7490" opacity="0.52"/><circle cx="268" cy="322" r="2" fill="#0E7490" opacity="0.85"/><circle cx="280" cy="322" r="2" fill="#0E7490" opacity="0.32"/><circle cx="292" cy="322" r="2" fill="#0E7490" opacity="0.83"/><circle cx="304" cy="322" r="2" fill="#0E7490" opacity="0.59"/><circle cx="316" cy="322" r="2" fill="#0E7490" opacity="0.68"/><circle cx="328" cy="322" r="2" fill="#0E7490" opacity="0.79"/><circle cx="340" cy="322" r="2" fill="#0E7490" opacity="0.42"/><circle cx="124" cy="334" r="2" fill="#0E7490" opacity="0.64"/><circle cx="136" cy="334" r="2" fill="#0E7490" opacity="0.63"/><circle cx="148" cy="334" r="2" fill="#0E7490" opacity="0.82"/><circle cx="160" cy="334" r="2" fill="#0E7490" opacity="0.36"/><circle cx="172" cy="334" r="2" fill="#0E7490" opacity="0.86"/><circle cx="184" cy="334" r="2" fill="#0E7490" opacity="0.49"/><circle cx="196" cy="334" r="2" fill="#0E7490" opacity="0.75"/><circle cx="208" cy="334" r="2" fill="#0E7490" opacity="0.72"/><circle cx="220" cy="334" r="2" fill="#0E7490" opacity="0.54"/><circle cx="232" cy="334" r="2" fill="#0E7490" opacity="0.85"/><circle cx="244" cy="334" r="2" fill="#0E7490" opacity="0.31"/><circle cx="256" cy="334" r="2" fill="#0E7490" opacity="0.83"/><circle cx="268" cy="334" r="2" fill="#0E7490" opacity="0.58"/><circle cx="280" cy="334" r="2" fill="#0E7490" opacity="0.68"/><circle cx="292" cy="334" r="2" fill="#0E7490" opacity="0.78"/><circle cx="304" cy="334" r="2" fill="#0E7490" opacity="0.44"/><circle cx="316" cy="334" r="2" fill="#0E7490" opacity="0.86"/><circle cx="328" cy="334" r="2" fill="#0E7490" opacity="0.41"/><circle cx="340" cy="334" r="2" fill="#0E7490" opacity="0.79"/><circle cx="136" cy="346" r="2" fill="#0E7490" opacity="0.86"/><circle cx="148" cy="346" r="2" fill="#0E7490" opacity="0.47"/><circle cx="160" cy="346" r="2" fill="#0E7490" opacity="0.76"/><circle cx="172" cy="346" r="2" fill="#0E7490" opacity="0.71"/><circle cx="184" cy="346" r="2" fill="#0E7490" opacity="0.55"/><circle cx="196" cy="346" r="2" fill="#0E7490" opacity="0.85"/><circle cx="208" cy="346" r="2" fill="#0E7490" opacity="0.29"/><circle cx="220" cy="346" r="2" fill="#0E7490" opacity="0.84"/><circle cx="232" cy="346" r="2" fill="#0E7490" opacity="0.57"/><circle cx="244" cy="346" r="2" fill="#0E7490" opacity="0.69"/><circle cx="256" cy="346" r="2" fill="#0E7490" opacity="0.78"/><circle cx="268" cy="346" r="2" fill="#0E7490" opacity="0.45"/><circle cx="280" cy="346" r="2" fill="#0E7490" opacity="0.86"/><circle cx="292" cy="346" r="2" fill="#0E7490" opacity="0.40"/><circle cx="304" cy="346" r="2" fill="#0E7490" opacity="0.80"/><circle cx="316" cy="346" r="2" fill="#0E7490" opacity="0.66"/><circle cx="328" cy="346" r="2" fill="#0E7490" opacity="0.61"/><circle cx="340" cy="346" r="2" fill="#0E7490" opacity="0.82"/><circle cx="136" cy="358" r="2" fill="#0E7490" opacity="0.70"/><circle cx="148" cy="358" r="2" fill="#0E7490" opacity="0.56"/><circle cx="160" cy="358" r="2" fill="#0E7490" opacity="0.84"/><circle cx="172" cy="358" r="2" fill="#0E7490" opacity="0.28"/><circle cx="184" cy="358" r="2" fill="#0E7490" opacity="0.84"/><circle cx="196" cy="358" r="2" fill="#0E7490" opacity="0.56"/><circle cx="208" cy="358" r="2" fill="#0E7490" opacity="0.70"/><circle cx="220" cy="358" r="2" fill="#0E7490" opacity="0.77"/><circle cx="232" cy="358" r="2" fill="#0E7490" opacity="0.46"/><circle cx="244" cy="358" r="2" fill="#0E7490" opacity="0.86"/><circle cx="256" cy="358" r="2" fill="#0E7490" opacity="0.39"/><circle cx="268" cy="358" r="2" fill="#0E7490" opacity="0.81"/><circle cx="280" cy="358" r="2" fill="#0E7490" opacity="0.65"/><circle cx="292" cy="358" r="2" fill="#0E7490" opacity="0.62"/><circle cx="304" cy="358" r="2" fill="#0E7490" opacity="0.82"/><circle cx="316" cy="358" r="2" fill="#0E7490" opacity="0.36"/><circle cx="328" cy="358" r="2" fill="#0E7490" opacity="0.86"/><circle cx="340" cy="358" r="2" fill="#0E7490" opacity="0.49"/><circle cx="136" cy="370" r="2" fill="#0E7490" opacity="0.29"/><circle cx="148" cy="370" r="2" fill="#0E7490" opacity="0.84"/><circle cx="160" cy="370" r="2" fill="#0E7490" opacity="0.55"/><circle cx="172" cy="370" r="2" fill="#0E7490" opacity="0.71"/><circle cx="184" cy="370" r="2" fill="#0E7490" opacity="0.76"/><circle cx="196" cy="370" r="2" fill="#0E7490" opacity="0.47"/><circle cx="208" cy="370" r="2" fill="#0E7490" opacity="0.86"/><circle cx="220" cy="370" r="2" fill="#0E7490" opacity="0.38"/><circle cx="232" cy="370" r="2" fill="#0E7490" opacity="0.81"/><circle cx="244" cy="370" r="2" fill="#0E7490" opacity="0.64"/><circle cx="256" cy="370" r="2" fill="#0E7490" opacity="0.63"/><circle cx="268" cy="370" r="2" fill="#0E7490" opacity="0.81"/><circle cx="280" cy="370" r="2" fill="#0E7490" opacity="0.37"/><circle cx="292" cy="370" r="2" fill="#0E7490" opacity="0.86"/><circle cx="304" cy="370" r="2" fill="#0E7490" opacity="0.48"/><circle cx="316" cy="370" r="2" fill="#0E7490" opacity="0.76"/><circle cx="328" cy="370" r="2" fill="#0E7490" opacity="0.72"/><circle cx="136" cy="382" r="2" fill="#0E7490" opacity="0.72"/><circle cx="148" cy="382" r="2" fill="#0E7490" opacity="0.76"/><circle cx="160" cy="382" r="2" fill="#0E7490" opacity="0.48"/><circle cx="172" cy="382" r="2" fill="#0E7490" opacity="0.86"/><circle cx="184" cy="382" r="2" fill="#0E7490" opacity="0.36"/><circle cx="196" cy="382" r="2" fill="#0E7490" opacity="0.82"/><circle cx="208" cy="382" r="2" fill="#0E7490" opacity="0.63"/><circle cx="220" cy="382" r="2" fill="#0E7490" opacity="0.64"/><circle cx="232" cy="382" r="2" fill="#0E7490" opacity="0.81"/><circle cx="244" cy="382" r="2" fill="#0E7490" opacity="0.38"/><circle cx="256" cy="382" r="2" fill="#0E7490" opacity="0.86"/><circle cx="268" cy="382" r="2" fill="#0E7490" opacity="0.47"/><circle cx="280" cy="382" r="2" fill="#0E7490" opacity="0.77"/><circle cx="292" cy="382" r="2" fill="#0E7490" opacity="0.71"/><circle cx="304" cy="382" r="2" fill="#0E7490" opacity="0.55"/><circle cx="316" cy="382" r="2" fill="#0E7490" opacity="0.84"/><circle cx="328" cy="382" r="2" fill="#0E7490" opacity="0.29"/><circle cx="148" cy="394" r="2" fill="#0E7490" opacity="0.35"/><circle cx="160" cy="394" r="2" fill="#0E7490" opacity="0.82"/><circle cx="172" cy="394" r="2" fill="#0E7490" opacity="0.62"/><circle cx="184" cy="394" r="2" fill="#0E7490" opacity="0.65"/><circle cx="196" cy="394" r="2" fill="#0E7490" opacity="0.80"/><circle cx="208" cy="394" r="2" fill="#0E7490" opacity="0.39"/><circle cx="220" cy="394" r="2" fill="#0E7490" opacity="0.86"/><circle cx="256" cy="394" r="2" fill="#0E7490" opacity="0.70"/><circle cx="268" cy="394" r="2" fill="#0E7490" opacity="0.56"/><circle cx="280" cy="394" r="2" fill="#0E7490" opacity="0.84"/><circle cx="292" cy="394" r="2" fill="#0E7490" opacity="0.29"/><circle cx="304" cy="394" r="2" fill="#0E7490" opacity="0.84"/><circle cx="316" cy="394" r="2" fill="#0E7490" opacity="0.55"/><circle cx="160" cy="406" r="2" fill="#0E7490" opacity="0.80"/><circle cx="172" cy="406" r="2" fill="#0E7490" opacity="0.40"/><circle cx="184" cy="406" r="2" fill="#0E7490" opacity="0.86"/><circle cx="196" cy="406" r="2" fill="#0E7490" opacity="0.44"/><circle cx="208" cy="406" r="2" fill="#0E7490" opacity="0.78"/><circle cx="220" cy="406" r="2" fill="#0E7490" opacity="0.69"/><circle cx="256" cy="406" r="2" fill="#0E7490" opacity="0.30"/><circle cx="268" cy="406" r="2" fill="#0E7490" opacity="0.85"/><circle cx="280" cy="406" r="2" fill="#0E7490" opacity="0.54"/><circle cx="292" cy="406" r="2" fill="#0E7490" opacity="0.72"/><circle cx="304" cy="406" r="2" fill="#0E7490" opacity="0.76"/><circle cx="316" cy="406" r="2" fill="#0E7490" opacity="0.48"/><circle cx="160" cy="418" r="2" fill="#0E7490" opacity="0.43"/><circle cx="172" cy="418" r="2" fill="#0E7490" opacity="0.78"/><circle cx="184" cy="418" r="2" fill="#0E7490" opacity="0.68"/><circle cx="196" cy="418" r="2" fill="#0E7490" opacity="0.59"/><circle cx="208" cy="418" r="2" fill="#0E7490" opacity="0.83"/><circle cx="220" cy="418" r="2" fill="#0E7490" opacity="0.31"/><circle cx="256" cy="418" r="2" fill="#0E7490" opacity="0.72"/><circle cx="268" cy="418" r="2" fill="#0E7490" opacity="0.75"/><circle cx="280" cy="418" r="2" fill="#0E7490" opacity="0.49"/><circle cx="292" cy="418" r="2" fill="#0E7490" opacity="0.86"/><circle cx="304" cy="418" r="2" fill="#0E7490" opacity="0.36"/><circle cx="172" cy="430" r="2" fill="#0E7490" opacity="0.83"/><circle cx="184" cy="430" r="2" fill="#0E7490" opacity="0.32"/><circle cx="196" cy="430" r="2" fill="#0E7490" opacity="0.85"/><circle cx="208" cy="430" r="2" fill="#0E7490" opacity="0.52"/><circle cx="220" cy="430" r="2" fill="#0E7490" opacity="0.73"/><circle cx="256" cy="430" r="2" fill="#0E7490" opacity="0.85"/><circle cx="268" cy="430" r="2" fill="#0E7490" opacity="0.34"/><circle cx="280" cy="430" r="2" fill="#0E7490" opacity="0.82"/><circle cx="292" cy="430" r="2" fill="#0E7490" opacity="0.61"/><circle cx="196" cy="442" r="2" fill="#0E7490" opacity="0.74"/><circle cx="208" cy="442" r="2" fill="#0E7490" opacity="0.51"/><circle cx="220" cy="442" r="2" fill="#0E7490" opacity="0.85"/><circle cx="256" cy="442" r="2" fill="#0E7490" opacity="0.60"/><circle cx="268" cy="442" r="2" fill="#0E7490" opacity="0.67"/><circle cx="280" cy="442" r="2" fill="#0E7490" opacity="0.79"/></g>
      <circle cx="234" cy="315" r="108" fill="none" stroke="#0E7490" stroke-opacity=".16" stroke-width="2"/>
      <circle cx="234" cy="315" r="126" fill="none" stroke="#7C3AED" stroke-opacity=".28" stroke-width="2" stroke-dasharray="3 10"><animateTransform attributeName="transform" type="rotate" from="0 234 315" to="360 234 315" dur="12s" repeatCount="indefinite"/></circle>
      <circle cx="234" cy="315" r="142" fill="none" stroke="#0E7490" stroke-opacity=".14" stroke-width="1" stroke-dasharray="1 15"><animateTransform attributeName="transform" type="rotate" from="360 234 315" to="0 234 315" dur="18s" repeatCount="indefinite"/></circle>
      <line x1="112" y1="172" x2="356" y2="172" stroke="#0E7490" stroke-opacity=".45"><animate attributeName="y1" values="172;480;172" dur="4.2s" repeatCount="indefinite"/><animate attributeName="y2" values="172;480;172" dur="4.2s" repeatCount="indefinite"/></line>
      <text x="234" y="525" text-anchor="middle" font-family="ui-monospace,SFMono-Regular,Menlo,Monaco,Consolas,monospace" font-size="18" font-weight="600" fill="#F8FAFC">Durgesh Kushwaha</text>
      <text x="234" y="547" text-anchor="middle" font-family="ui-monospace,SFMono-Regular,Menlo,Monaco,Consolas,monospace" font-size="12" fill="#94A3B8">Data Analytics &#183; Data Science &#183; AI/ML</text>
      <text x="234" y="570" text-anchor="middle" font-family="ui-monospace,SFMono-Regular,Menlo,Monaco,Consolas,monospace" font-size="12" fill="#0E7490">~/profile $ build --bizguard<tspan fill="#F8FAFC">&#9608;</tspan><animate attributeName="opacity" values="1;.3;1" dur="1s" repeatCount="indefinite"/></text>
    </g>

    <!-- RIGHT panel -->
    <rect x="468" y="64" width="688" height="522" rx="16" fill="#FFFFFF" fill-opacity="0.55" stroke="#DCE7F5" stroke-width="1"/>

    <g opacity="0">
      <animate attributeName="opacity" values="0;1" dur=".4s" begin="0.3s" fill="freeze"/>
      <text x="492" y="98" font-family="ui-monospace,SFMono-Regular,Menlo,Monaco,Consolas,monospace" font-size="13" letter-spacing="2" fill="#2563EB">SYSTEM.INFO</text>
      <text x="492" y="122" font-family="ui-monospace,SFMono-Regular,Menlo,Monaco,Consolas,monospace" font-size="12" fill="#475569">user@durgesh:~$ ./profile.sh</text>
    </g>

    <line x1="492" y1="136" x2="1132" y2="136" stroke="#DCE7F5" stroke-width="1"/>

    <g opacity="0" font-family="ui-monospace,SFMono-Regular,Menlo,Monaco,Consolas,monospace" font-size="15">
      <animate attributeName="opacity" values="0;1" dur=".4s" begin="1.0s" fill="freeze"/>
      <text x="492" y="168" fill="#06B6D4">&gt; NAME</text>
      <text x="620" y="168" font-weight="600" fill="#0F172A">Durgesh Kushwaha</text>

      <text x="492" y="198" fill="#06B6D4">&gt; ROLE</text>
      <text x="620" y="198" fill="#0F172A">Data Analytics / Data Science</text>

      <text x="492" y="228" fill="#06B6D4">&gt; FOCUS</text>
      <text x="620" y="228" fill="#0F172A">Python &#183; SQL &#183; Statistics &#183; Machine Learning</text>
    </g>

    <g opacity="0">
      <animate attributeName="opacity" values="0;1" dur=".4s" begin="1.7s" fill="freeze"/>
      <text x="492" y="270" font-family="ui-monospace,SFMono-Regular,Menlo,Monaco,Consolas,monospace" font-size="12" letter-spacing="2" fill="#2563EB">STACK</text>
    </g>
    
      <g transform="translate(492.0,296.0)" opacity="0">
        <animate attributeName="opacity" values="0;1" dur=".4s" begin="2.10s" fill="freeze"/>
        <rect width="57.0" height="28" rx="14" fill="#FFFFFF" fill-opacity="0.55" stroke="#DCE7F5" stroke-width="1"/>
        <circle cx="16" cy="14" r="3" fill="#06B6D4">
          <animate attributeName="opacity" values="1;0.4;1" dur="2.4s" begin="0.00s" repeatCount="indefinite"/>
        </circle>
        <text x="26" y="18" font-family="ui-monospace,SFMono-Regular,Menlo,Monaco,Consolas,monospace" font-size="12" fill="#0F172A">React</text>
      </g>
      <g transform="translate(561.0,296.0)" opacity="0">
        <animate attributeName="opacity" values="0;1" dur=".4s" begin="2.22s" fill="freeze"/>
        <rect width="71.8" height="28" rx="14" fill="#FFFFFF" fill-opacity="0.55" stroke="#DCE7F5" stroke-width="1"/>
        <circle cx="16" cy="14" r="3" fill="#06B6D4">
          <animate attributeName="opacity" values="1;0.4;1" dur="2.4s" begin="0.30s" repeatCount="indefinite"/>
        </circle>
        <text x="26" y="18" font-family="ui-monospace,SFMono-Regular,Menlo,Monaco,Consolas,monospace" font-size="12" fill="#0F172A">Node.js</text>
      </g>
      <g transform="translate(644.8,296.0)" opacity="0">
        <animate attributeName="opacity" values="0;1" dur=".4s" begin="2.34s" fill="freeze"/>
        <rect width="64.4" height="28" rx="14" fill="#FFFFFF" fill-opacity="0.55" stroke="#DCE7F5" stroke-width="1"/>
        <circle cx="16" cy="14" r="3" fill="#06B6D4">
          <animate attributeName="opacity" values="1;0.4;1" dur="2.4s" begin="0.60s" repeatCount="indefinite"/>
        </circle>
        <text x="26" y="18" font-family="ui-monospace,SFMono-Regular,Menlo,Monaco,Consolas,monospace" font-size="12" fill="#0F172A">Python</text>
      </g>

    <g opacity="0">
      <animate attributeName="opacity" values="0;1" dur=".4s" begin="2.5s" fill="freeze"/>
      <text x="492" y="364" font-family="ui-monospace,SFMono-Regular,Menlo,Monaco,Consolas,monospace" font-size="12" letter-spacing="2" fill="#2563EB">FEATURED PROJECT</text>
      <rect x="492" y="382" width="616" height="86" rx="12" fill="#FFFFFF" fill-opacity="0.55" stroke="#DCE7F5" stroke-width="1"/>
      <text x="514" y="414" font-family="ui-monospace,SFMono-Regular,Menlo,Monaco,Consolas,monospace" font-size="15" font-weight="600" fill="#0F172A">BizGuard AI</text>
      <text x="514" y="438" font-family="ui-monospace,SFMono-Regular,Menlo,Monaco,Consolas,monospace" font-size="12.5" fill="#475569">Intelligent Business Health Analyzer</text>
      <text x="514" y="455" font-family="ui-monospace,SFMono-Regular,Menlo,Monaco,Consolas,monospace" font-size="12.5" fill="#475569">sales insights, trends and actionable recommendations</text>
    </g>

    <g opacity="0">
      <animate attributeName="opacity" values="0;1" dur=".4s" begin="3.1s" fill="freeze"/>
      <text x="492" y="510" font-family="ui-monospace,SFMono-Regular,Menlo,Monaco,Consolas,monospace" font-size="12" letter-spacing="2" fill="#2563EB">CONNECT</text>
      <circle cx="500" cy="532" r="3" fill="#06B6D4"/>
      <text x="512" y="536" font-family="ui-monospace,SFMono-Regular,Menlo,Monaco,Consolas,monospace" font-size="13" fill="#0F172A">github.com/durgesh-kushwaha</text>
    </g>

  </g>
</svg>